<?xml version="1.0" encoding="UTF-8"?>
<svg version="1.1" viewBox="0 0 1080 1080" width="1280" height="1280" xmlns="http://www.w3.org/2000/svg">
<path transform="translate(0)" d="m0 0h1080v1080h-1080z" fill="#FEFEFE"/>
<path transform="translate(493,108)" d="m0 0 16 1 3 1 12 1 1 3 7 1 5 4 7 2v2l5 1 1 3 5 1 3 1v5l5 1 9 5 6 6 2 3h12l12 1 6 1 6 2h2v3l6-1v2l5 2v2l7 1 2 4 4 2 2 5 7 2 4 4v6l3 1 1 8 2 1 2 9 2 2 3 11 2 4 2 5 2 7 1 7 3 4-2 5v12l2 2 4 15 6 3v5 4l1 1v5l3 1 3 11v8l2 1 1 9 2 4-1 6 1 1 2 9 1 9 2 6 1 1v8l-1 3v8h-2v8l-2 7 6-1 10 4 1 5 6-1 5 5 8 4 3 8 1 6h2l2 5 2 6v9l-3 14-1 2v5l-6 9h-2l-1 4-6 3-2 4h-16l-4-1-16-1v12l-3 7v15l-1 1v8l-3 1 1 8-1 1-2 11-3 1v15l-2 2-2 5-3 2 1 6-4 1 1 4-2 2h-3l-2 9-3 2v5l-5 4-2 5h-2v2h-3l-1 3-3 1-1 4-5 3-1 3-10 6-5 5-3 4-9 2-1 3-8 4v3l4 2v2h3v3l6 4v3l5 1v4l5 1 2 4h3v5l5 2 6 7 2 3v4l7 2v4l3 1 7 8 1 4 1 1 1 7 4 1 1 5 2 1 2 9 3 4 1 10 2 7v3l2 10-3 6 3 1v8 3l1 7-3 7v5l-2 2-1 8-3 7-2 5-3 3-2 5-4 7h-4l-1 4-4-1-2 4-1 4-5 1v6l1 2-1 8 1 5 1 3-2 2 2 8-1 6-1 2 3 5-2 7-1 5 3 9-2 3v11l1 1-1 15v4l-4 1-16 2h-6l-10-3h-8l-4 2h-6l-1-1h-16l-4 1-28 1-4-1-11 1-1 1h-18l-4-2h-4l-1 2-12-1-5 1h-23l-8-1-4 1h-6l-3-1-3 3-17-2h-3l-1 1h-7l-2-1h-9-4l-2-4 1-15-1-1-1-15 1-12h2l-3-15-1-20v-17l-1-2-7-1-3-5-8-5-1-2-5-2-3-8-4-2v-8l-4-5 1-7-2-4v-3l-1-6 2-6-2-7 3-6-2-4v-5h2l-1-7 3-1-2-8 2-3 2-7 5-5 6-8 3-8 3-1-1-4 2-6 3-1 2-4 4-9 3-1v-3l4-1v-4l4-1v-5l11-9 1-4 3-1 2-3h5l2-7-7 1-9-4-7-1-2-2-10-4-3-3-10-4-1-2-9-3-4-2-3-2v-4h-4v-3l-5-2-1-4-4-1-3-5v-2l-5-1v-5h-4l-4-8-4-4v-2l-3-1-2-5-4-4-1-4-9-16v-4l-3-1-5-12-2-1-1 3-5 1-5 2-7 1-9 3-4 1-6-2-5-1-8-3v-2l-5-1-6-4-4-8-1-5-2-1-1-12-1-1-1-13 3-6 1-6h2l1-8 2-2 4-1 2-4 4-2 1-3 7-2 4 1 1-1v-6l-5-10-2-6-2-4v-6l-2-3-4-19v-5l-2-3 1-5 2-5-3-1-1-9-1-4 4-8 1-8 6-9-4-2-1-7-5-1-1-2 1-3-1-3h-2l-2-7-3-6-1-8-1-4 1-5v-7l-2-4 1-7-1-5v-4l2-6 2-7v-5l3-1v-7l3-1v-7l3-8 2-4 1-5 3-5 1-1 1-9 4-5 7-4h3l1-5 4-2h3l2-4 9-2 3-5 3-1 4-10v-6l4-4 2-4h2l1-5 2-4 3-3 4-6 3-1 1-4h3l1-3 5-1 1-4 7-3 2-2h5l1-4 7 1 1-4 7-2 8-3h10l1-3h18l4-1 4 1 9 1 2 1 18 2 1 1h8l7-4 3-1v-2l6-3 11-2v-2h3l1-2 9-1h7l3 1 1-4 7 1z" fill="#B8815D"/>
<path transform="translate(598,651)" d="m0 0 2 1v3l4 2v2h3v3l6 4v3l5 1v4l5 1 2 4h3v5l5 2 6 7 2 3v4l7 2v4l3 1 7 8 1 4 1 1 1 7 4 1 1 5 2 1 2 9 3 4 1 10 2 7v3l2 10-3 6 3 1v8 3l1 7-3 7v5l-2 2-1 8-3 7-2 5-3 3-2 5-4 7h-4l-1 4-4-1-2 4-1 4-5 1v6l1 2-1 8 1 5 1 3-2 2 2 8-1 6-1 2 3 5-2 7-1 5 3 9-2 3v11l1 1-1 15v4l-4 1-16 2h-6l-10-3h-8l-4 2h-6l-1-1h-16l-4 1-28 1-4-1-11 1-1 1h-18l-4-2h-4l-1 2-12-1-5 1h-23l-8-1-4 1h-6l-3-1-3 3-17-2h-3l-1 1h-7l-2-1h-9-4l-2-4 1-15-1-1-1-15 1-12h2l-3-15-1-20v-17l-1-2-7-1-3-5-8-5-1-2-5-2-3-8-4-2v-8l-4-5 1-7-2-4v-3l-1-6 2-6-2-7 3-6-2-4v-5h2l-1-7 3-1-2-8 2-3 2-7 5-5 6-8 3-8 3-1-1-4 2-6 3-1 2-4 4-9 3-1v-3l4-1v-4l4-1v-5l11-9 1-4 3-1 2-3h5l2-6h9l1 2h8l4 2 14 1 16 1 5 1h20l1-2 3 1 4-1 4 1 2-2h20l1-3 5-1 3 1h9l2-4 9-1 4-2h4v-2l9-2 6-3 4-3 11-3z" fill="#B8825D"/>
<path transform="translate(493,108)" d="m0 0 16 1 3 1 12 1 1 3 7 1 5 4 7 2v2l5 1 1 3 5 1 3 1v5l5 1 9 5 6 6 2 3h12l12 1 6 1 6 2h2v3l6-1v2l5 2v2l7 1 2 4 4 2 2 5 7 2 4 4v6l3 1 1 8 2 1 2 9 2 2 3 11 2 4 2 5 2 7 1 7 3 4-2 5v12l2 2 4 15 6 3v5 4l1 1v5l3 1 3 11v8l2 1 1 9 2 4-1 6 1 1 2 9 1 9 2 6 1 1v8l-1 3v8h-2v8l-4 4-2 4h-2v2l-5-1-3 4h-9v3l-3 2-4-1-8-4-7-7v-6l-4-4-1-3-1-19-2-6 2-3-2-10-7-4-2-4-4-2-1-2-4-2-6-14-1-9-1-7v-14l3-1v-5l-5 1-6-3-9-3-3-3-1-5-2-1-1-5h-5l-1-6-3-2-5-14-1-9h-8l-4-1-1 5-6 3-6 2h-5v2l-10 1-8 1-5 1-7-1-9-3-6-3-1-2-5-1-1-2-9 2-1 4h-4l-1 2h-4l-1 3-5 1-4 4-13 2-5 3-8 1h-4v-2h-5l-1 3h-3l-1-2h-16l-2-2-11-1-3-6v-2h-4v5l-5 3-3 5-6 1-3 5h-7l-6 3-8 3-1 2-6-1-4 3-13 3-3 1-7-1-16-6-1 12-4 8-3 5-3 1 1 4-4 5h-2l-2 6h-3v2l-11 9v5 3l5 12v10l1 4 1 7v5l2 6h-2l2 5v15l-5 3-1 7 5 5 1 4 4 2-1 8 3 7 2 17v11l-5 9-2 6h-2l-1 6-4 2h-5l-2-2-4-1-1 3-7-1h-5l-4-5-6-16-2-3-2-13-3-7-2-10 1-7v-9l-4-1-1-9-1-4 4-8 1-8 6-9-4-2-1-7-5-1-1-2 1-3-1-3h-2l-2-7-3-6-1-8-1-4 1-5v-7l-2-4 1-7-1-5v-4l2-6 2-7v-5l3-1v-7l3-1v-7l3-8 2-4 1-5 3-5 1-1 1-9 4-5 7-4h3l1-5 4-2h3l2-4 9-2 3-5 3-1 4-10v-6l4-4 2-4h2l1-5 2-4 3-3 4-6 3-1 1-4h3l1-3 5-1 1-4 7-3 2-2h5l1-4 7 1 1-4 7-2 8-3h10l1-3h18l4-1 4 1 9 1 2 1 18 2 1 1h8l7-4 3-1v-2l6-3 11-2v-2h3l1-2 9-1h7l3 1 1-4 7 1z" fill="#1C1F1D"/>
<path transform="translate(598,651)" d="m0 0 2 1v3l4 2v2h3v3l6 4v3l5 1v4l5 1 2 4h3v5l5 2 6 7 2 3v4l7 2v4l3 1 7 8 1 4 1 1 1 7 4 1 1 5 2 1 2 9 3 4 1 10 2 7v3h-6l-3 2-4-2-4 1-4-1h-4l-19 1-3 1-9-2v2l-9 1h-3l2 5-2 6v10h-8l-3 2h-9v2l-2 1-10-1-3-1v-4h-6l-1-3-8-2-2-3h-19-3l-8 1h-3l-3-2-1 2-5 1-5-2h-10v2l-3 1-3-1-7 1h-4v2l-9 3-13 1-2 2-10 1-11 3-6 1-3 3-8-4-3-4v-14h-6l-3-2h-11l-2-1h-6l-5 1-6-3-10 1-5 1-1-2-7 1-4 4-1-4 3-1-2-8 2-3 2-7 5-5 6-8 3-8 3-1-1-4 2-6 3-1 2-4 4-9 3-1v-3l4-1v-4l4-1v-5l11-9 1-4 3-1 2-3h5l2-6h9l1 2h8l4 2 14 1 16 1 5 1h20l1-2 3 1 4-1 4 1 2-2h20l1-3 5-1 3 1h9l2-4 9-1 4-2h4v-2l9-2 6-3 4-3 11-3z" fill="#F8B900"/>
<path transform="translate(493,108)" d="m0 0 16 1 3 1 12 1 1 3 7 1 5 4 7 2v2l5 1 1 3 5 1 3 1v5l5 1 9 5 6 6 2 3h12l12 1 6 1 6 2h2v3l6-1v2l5 2v2l7 1 2 4 4 2 2 5 7 2 4 4v6l3 1 1 8 2 1 2 9 2 2 3 11 2 4 2 5 2 7 1 7 3 4-2 5v12l2 2 4 15 6 3v5 4l1 1v5l3 1 3 11v8l2 1 1 9 2 4-1 6 1 1 2 9 1 9 2 6 1 1v8l-1 3v8h-2v8l-4 4-2 4h-2v2l-5-1-3 4h-9v3l-3 2-4-1-8-4-7-7v-6l-4-4-1-3-1-19-2-6 2-3-2-10-7-4-2-4-4-2-1-2-4-2-6-14-1-9-1-7v-14l3-1v-5l-5 1-6-3-9-3-3-3-1-5-2-1-1-5h-5l-1-6-3-2-5-14-1-9h-8l-4-1-1 5-6 3-6 2h-5v2l-10 1-8 1-5 1-7-1-9-3-6-3-1-2-5-1v-1h5l2-10-2-7-1-10-1-7-1-1-1-15-1-3 1-3v-7l-3-2-1-7 1-4-3-5-3-19-3-7v-8l-2-3-3-1v-2l-4 2-1 2h-13l-6-1-1 3h-4v-2h3l1-2 9-1h7l3 1 1-4 7 1z" fill="#1C1F1D"/>
<path transform="translate(498,863)" d="m0 0h13l5 2 6 2 14 1 4 2 11-1 1 1h13l4 2h8l5-1 7 1h5l5-1h12l6-3h3l3-1h6l5-1 1-3h6l2 8-1 8 1 5 1 3-2 2 2 8-1 6-1 2 3 5-2 7-1 5 3 9-2 3v11l1 1-1 15v4l-4 1-16 2h-6l-10-3h-8l-4 2h-6l-1-1h-16l-4 1-28 1-4-1-11 1-1 1h-18l-4-2h-4l-1 2-12-1-5 1h-23l-8-1-4 1h-6l-3-1-3 3-17-2h-3l-1 1h-7l-2-1h-9-4l-2-4 1-15-1-1-1-15 1-12h2l-3-15-1-20v-16l11 1 1 3 8-2 3 2 11 2 3-1 5 2h15l7 1h3l2-2 6 1 1-3 10 1 1-3 10-3 1-1 9-1z" fill="#F7BA00"/>
<path transform="translate(484,112)" d="m0 0h2v2l4 1 2 5v6l3 7 3 19 3 5-1 5 1 6 3 2v7l-1 4 2 10v7l1 3 2 9v8l2 5-1 5-2 5h-5l-4-1-6 2-1 4h-4l-1 2h-4l-1 3-5 1-4 4-13 2-5 3-8 1h-4v-2h-5l-1 3h-3l-1-2h-16l-2-2-11-1-3-6v-2h-4v5l-5 3-3 5h-6l1-2h5v-14-3-8l-1-1-2-20-1-7 1-15-3-5 1-9-4-1v-7l-1-5 1-3-2-1-1-13h-2l2-10h-6l-2-1-7 1v-2l-7 2-5 1-1 2-3-2 3-2 7-2h10l1-3h18l4-1 4 1 9 1 2 1 18 2 1 1h8l7-4 3-1v-2l6-3 15-3 1-2h15l4 1 1-3z" fill="#1B1E1D"/>
<path transform="translate(699,392)" d="m0 0h3l-1 4 6-1 10 4 1 5 6-1 5 5 8 4 3 8 1 6h2l2 5 2 6v9l-3 14-1 2v5l-6 9h-2l-1 4-6 3-2 4h-16l-4-1-16-1v12l-3 7v15l-1 1v8l-3 2-1 6-8 1-4-1-5-1-1-2-10 1h-5l2 2-1 5-9-2-10-8v-2l-4-1-2-6-8-1-2-3 3-3 4-1 5-5 1-3-7 1-5-1v2h-2l1-5-3 2-4-1-2-6-4-4v-3l3-3-5-8-7-3 1-3h2v-8l-3-4-3-14 1-2 3-1v-7l8-7 6 1 7-1h4v-3l3-2v-8l2-3v-7l5-2 3 4h2v-8h2l1-2h12l3 5 6-1 2-2-3-2-1-5 6 4 2 3 8 4 6-1v-3l9-1 4-4 4 2v-2l2-1z" fill="#B27055"/>
<path transform="translate(236,408)" d="m0 0h1l1 9-1 8 2 9 3 8 2 12 4 9 5 12 2 2h9l3 1 1-2 5 1 1 1 8-1 2-6 2-1 2-6 4-8v-15l-2-13-3-7 1-5 3 3 2 10 2 6 1 7-2 6h2v3h2l6 10 5 1 2 3 2 7-3 1 1 4 4-1v-11l3-3 4 1-2-5-5-3 3-8 4 1 4 6 1 7 3 5 5 2-3-6v-7l1-3 4-1 3 1 4 8 6 4 2 9-1 5h-2l-2 5-1 1v5l7 3 1 4h8l4-2 1 10-1 8-4 1-3-1-2 4-6 2-1 3h2v2l4 1 1 4-6 3v3l4 2 2-2 9 1 2-4 8-1 2-1 6 1 1 7-6 9-7 1-4 4-9 1h-3v4l6 3-1 5-4 5-1 4-3-3v-2h-5v4l4 2-1 4 2 1-2 3-7 2-5 5-3 6-8 1-2-1v3l-7-1-2-2-4 1-1-6h-4l-9-16v-4l-3-1-5-12-2-1-1 3-5 1-5 2-7 1-9 3-4 1-6-2-5-1-8-3v-2l-5-1-6-4-4-8-1-5-2-1-1-12-1-1-1-13 3-6 1-6h2l1-8 2-2 4-1 2-4 4-2 1-3 7-2 4 1 1-1v-6l-5-10-2-6-2-4v-6l-2-3-4-19v-5l-2-3 1-5z" fill="#B27055"/>
<path transform="translate(782,149)" d="m0 0h2v2l5-2 4 4 10 1 7 3 5 2h3l1 4 6 1 3 2v3l4 1 1 3h6l1 1v5h5l5 6v2l4 2 1 5 3 3-2 5 3 1v8l1 6-3 4-2 9-3 6-5 5h-2l-1 5-3 6-6 3-7 5-2 3-8 3-1 1h-5l-2 5-2 1-1 5-3 5v12l-3 9-2 2-2 5-2 1-3 8-3 2-9 2-3 1-5-3v-2l-5 1-3-8-2-1v-8l1-9-1-8 4-8 2-7 1-4h3v-2l4-3 1-3 7-3 2-2 6-1 6-3 3-5 3-1 2-4h2l1-4 6-1-1-5 3-1-2-10-2-5 1-6-2-2-2-6-3-2v-4h-7l-5-5-4-2-6-2h-3-3l-1 1h-6l-1 4h-3v5l-3 5-3 11-4 5-2 7-1 6-3 1-10-2-3-2h-4l-3-4v-2h-4l-4-10-2-2v-10l-1-5 2-4 1-9 4-1 2-6 4-4 6-2 3-3 9-6 5-4 4 1 2-3h5l4-2 9-1z" fill="#9FC50B"/>
<path transform="translate(607,150)" d="m0 0 9 3h2v3l6-1v2l5 2v2l7 1 2 4 4 2 2 5 7 2 4 4v6l3 1 1 8 2 1 2 9 2 2 3 11 2 4 2 5 2 7 1 7 3 4-2 5v12l2 2 4 15 6 3v5 4l1 1v5l3 1 3 11v8l2 1 1 9 2 4-1 6 1 1 2 9 1 9 2 6 1 1v8l-1 3v8h-2v8l-4 4-2 4h-2v2l-5-1-3 4h-9v3l-3 2-4-1-8-4 4-1 1-7-2-3-1-9-2-2-2-13-1-1-2-12-2-6 3-4-4-1 1-6-1-1-2-11-1-5 1-3-3-11v-6l-2-1 1-8-1-1v-7l-2-6-1-7-1-4v-12l-3-15-1-2-1-12-2-8-2-11v-6l-5-7-1-7-2-4-3-2-2-6-1-11-1-4-4-1-5-2-6-2-1-3z" fill="#1D1F1D"/>
<path transform="translate(569,146)" d="m0 0h6l1 5 6 3h2l1-5 19 1 2 4 9 2 5 3 2 6 1 9 2 6 4 4 2 5 1 6 4 5v8l2 9 2 8v6l1 7 2 3 1 7 1 8v10l2 6v6l2 7v5l1 2-2 7 3 1 1 10 2 8-1 4 2 6 1 8v4l-1 3 4 1-2 6 3 7 1 9 2 4 1 10 3 5v6l2 3-1 7-3 1-3-1-5-5-1-4-1-5-3-2-1-3-1-19-2-6 2-3-2-10-7-4-2-4-4-2-1-2-4-2-6-14-1-9-1-7v-14l3-1v-5l-5 1-6-3-9-3-3-3-1-5-2-1-1-5h-5l-1-17-3-5 3-4-2-6-2-3-1-10-2-4 1-5-2-2v-8l-5-9-2-8-3-3v-8l-2-2v-10l-2-3z" fill="#0E0D0D"/>
<path transform="translate(484,112)" d="m0 0h2v2l4 1 2 5v6l3 7 3 19 3 5-1 5 1 6 3 2v7l-1 4 2 10v7l1 3 2 9v8l2 5-1 5-2 5h-5l-4-1-6 2-1 4h-4l-1 2h-4l-1 3-5 1-4 4-13 2-5 1-1-1v-9h-2l1-6-3-1v-7l-1-8-1-3h-2l-2-6v-13l-1-3-2-8 2-5-3-1v-14l1-5-3-1-2-7 1-6-2-5 1-12 1-2 4-1 4-2v-3l8-1v-2l9-2 1-2h15l4 1 1-3z" fill="#0E0D0D"/>
<path transform="translate(356,129)" d="m0 0h5v2l8-2 7 2v5l-2 5h2l1 3v10l3 1-1 6 1 6v3l3 1v9l3 5-1 19 2 13 1 10 1 1v8 3 12l-1 2-5 1-4 7h-7l-6 3-8 3-1 2-6-1-3 2h-9v-7l-2-1-2-10-1-8-2-12-2-2v-9l-2-6-1-5v-5l-2-5v-12h-2l-2-10 2-10-4-2v-18l5-2v-2l5-2 3-1v-5l7 1 1-4h8z" fill="#0E0D0D"/>
<path transform="translate(237,248)" d="m0 0 3 1-1 6 2 3 2 14 2 2 1 7 3 8 1 9 3 3v9l3 1-1 10h3l2 7 2 5v10l3 1 2 5 1 8 1 1 2 12v5l1 1v5l-1 5 2 3v12l2 8-1 3v7l2 2 1 13 1 5v14l3 1 1 9 2 5 3-3v5l-3 1-1 6-4 2h-5l-2-2-4-1-1 3-7-1h-5l-4-5-6-16-2-3-2-13-3-7-2-10 1-7v-9l-4-1-1-9-1-4 4-8 1-8 6-9-4-2-1-7-5-1-1-2 1-3-1-3h-2l-2-7-3-6-1-8-1-4 1-5v-7l-2-4 1-7-1-5v-4l2-6 2-7v-5l3-1v-7l3-1v-7l3-8z" fill="#1C1F1D"/>
<path transform="translate(269,209)" d="m0 0h2v6l2 3 1 11 3 9 1 7 3 9-1 2h-2v2l4 2-1 5 1 3-1 3 3 5 1 7 1 4 1 9 1 8 1 4h-2v3l-11 9v5 3l5 12v10l1 4 1 7v5l2 6h-2l2 5v15l-5 3-1 7 5 5 1 4 4 2-1 8 3 7 2 17v11l-5 9h-2l-2 4-2-2-2-7v-6l-2-1-1-18-1-1-1-13-2-2v-7l1-4-2-10v-9l-2-3 1-10-1-1v-7l-2-10-1-1-1-8-2-5-2-1-1-10-2-5-1-7h-3l-1-4 1-6-2-1-1-9-3-3-1-9-3-8-1-7-2-2-2-14-2-5 1-4-3-1 1-5 3-5 1-1 1-9 4-5 7-4h3l1-5 4-2 6 1v-3z" fill="#0E0D0D"/>
<path transform="translate(513,696)" d="m0 0 3 1 1 2 6 1 6 9-1 2 5 1 6 8 3 3 5 2v4l4 2 8 3 4-1 4-2 1-3 5-1 2-6 3-1 2-4 4-6h4l2-4 7-5h6l4 2 1 4-3 7-5 3-5 2-2 5-3 4-5 3-2 4-5 2v2h-2v3l-4 3h-6v3l-4 1h-7l-9-3-1-2-4-1-3-6-4-2v-4l-5-2v-2l-4-1-3-7-7-3-3-1h-5v4l-5 1-1 6-5-1-1 3-2 1-1 3-3 1-2 3h-3l-2 5-7 6-5 4-10 1-5-2-1-2 1-3-4-1-5-3-3-4-5-2-1-3-2-1v-2l-4 1-1-6-4-2v-2h-2l-3-9-4-1-1-10 3-3 5 1 5 2 2 2v5l5 1 1 8 5 1 4 4 1 3 4 2v2l4 2 6 5 1 2 5-1 4-6 6-1v-7l11-6 2-2h5l1-6 4-1v-5l6-3 6-2z" fill="#DD9C0A"/>
<path transform="translate(463,428)" d="m0 0h5l7 7-2 1v6l3 5 2 18-1 4-11 4-7 2-2 4h-4l-1 6-5 5-1 8h2l-1 4 2 2v3l6 2h6l1 2 15 1 9-2v-2l12-2 6-3 1-2 4-1 1-2 7 1 2 4 4 2-1 4-4 1-1 6-9 2-8 4h-5l-1 3h-9l-4 2-2-1h-6l-1 2-10-1-4-2-6-1-5-3-8-5-4-3-3-9-1-1v-16l3-3 1-7 5-4 2-6 5-2 11-6 4-2-2-5v-6h-2l1-6-1-4 1-6z" fill="#80523E"/>
<path transform="translate(519,605)" d="m0 0 3 1v2l6-1 11 8v2l5 1 2 9 3 1-1 8 3 1-1 2h-2l2 5-4 8-3 5-15 6-11-2-3-3-5-10-3-5 1-2h-2l1-7-2-11h2l-1-8 4-2 1-5z" fill="#80523E"/>
<path transform="translate(543,328)" d="m0 0 5 1h9l4-1 10 5 5 3 2 4-2 9-4 4h-8l-3-3-8-1h-8l-7 1-1 4h-5l-1 3-4 2-2 3-6-1-7-6-1-6v-4l3-1 2 1 1-4 7-6 16-4h2z" fill="#100E15"/>
<path transform="translate(386,357)" d="m0 0h9l5 1 4-1 2 4 4-1 6 2 2 7 3 3-1 3-2 1-2 4-5 2-2-2-14-3v2l-10-2-5 2-8 7-6 2-7 2v-3l-4-1-2-5v-4h2l-1-4 5-3 6-8 11-2 2-2 5 1z" fill="#100D14"/>
<path transform="translate(566,793)" d="m0 0 4 2 1 9-5 3-11 1-6 1-3 4h-2l-1 7-4 1-1 4h-2l-1 6-4 2-2 3h-2l-2 6-4 3-2 6-2 3-4 1-2 3-3 1h-7l-1-1-1-8 5-4 3-3 1-4 4-1 4-6 4-8 4-2 3-4h2l-1-4 5-1v-8l2-2h4v-2l3-1 2-4 4-2h16z" fill="#B37056"/>
<path transform="translate(786,347)" d="m0 0h2l1 2 8 1 3 2v5l2 7v5l-3 7h-2l-1 3-4 4h-4l-1 3-15-1-2-4-5-2-1-7-2-5 1-3 1-7 5-2 2-3 7-3 5 1z" fill="#9FC50B"/>
<path transform="translate(398,427)" d="m0 0 5 1 8 6 5 8v3l-3 2-1 8-4 2-1 4-7 3-4 1-5-2-7-1-2-2-2-6-1-4 2-15 8-7z" fill="#100E14"/>
<path transform="translate(559,397)" d="m0 0 3 1v2l4-1 3 1 2 4 4 1 1 4-1 2v8l3 4-4 6-2 2-10 3-9-1-9-5-2-7v-4h-2l2-10 4-2 3-5 7-1z" fill="#100D14"/>
<path transform="translate(699,392)" d="m0 0h3l-1 4 6-1 10 4 1 5 6-1 5 5 8 4 3 8 1 6h2l2 5 2 6v9l-3 14-1 2v5l-5 8-2-8 5-1-1-9 4-5 1-3-4-2-3-4 1-8h2v3l3 1v-2l-2-1-1-7-3 2-5-1-3-3-4-14-3-2-9-2-5-1-3-1v-6l-6-2-2-6z" fill="#B68756"/>
<path transform="translate(620,788)" d="m0 0 7 2 12 1 5 3h5l2 5v9l-5 1-1-1-7-1-3-4h-18l-4 1-2-2v-4l-4-1 1-7 1-1h10z" fill="#B37056"/>
<path transform="translate(407,801)" d="m0 0 4 1 3 2v8l-1 1-9 1-4 1-1 4-9 3h-5l-3-2-1-8 8-5h4l2-4 4-1h4z" fill="#B37056"/>
<path transform="translate(417,779)" d="m0 0 2 1 2 10v2l1 4 6 2 4-4h8l2-2 9-1 6-3 3-1 6 1 12-3 5-2 9-1 7-2 6 1v1h-6v2l-3 1-3-1-7 1h-4v2l-9 3-13 1-2 2-10 1-11 3-6 1-3 3-8-4-3-4z" fill="#DD9C0A"/>
<path transform="translate(221,531)" d="m0 0h2l2 9 2 2 1 7 4 1v3l2 1 1 3 5 1 9 4h5l4-1 5 1 6-2 8-1 2-1 4 2-5 2-7 1-9 3-4 1-6-2-5-1-8-3v-2l-5-1-6-4-4-8-1-5-2-1z" fill="#B3904B"/>
<path transform="translate(243,480)" d="m0 0 2 1-3 2h-3l1 5-1 1h-5l-1 6h-3l-1 6-6 2 3 8v5l-2 1 1 2-3 5-2 4-1-1-1-13 3-6 1-6h2l1-8 2-2 4-1 2-4 4-2 1-3z" fill="#B38F4D"/>
<path transform="translate(739,435)" d="m0 0h2v3h4 2v8l-3 14-1 2v5l-5 8-2-8 5-1-1-9 4-5 1-3-4-2-3-4z" fill="#B7855A"/>
<path transform="translate(386,871)" d="m0 0 11 1 1 3 8-2 3 2 11 2 3-1 5 2h15l7 1h3v3l-10-1-4 1h-10l-6-3h-12l-5-3h-10l-5-1h-2v-2l-3 1z" fill="#DD9C0A"/>
<path transform="translate(640,765)" d="m0 0h24l-3 3-6-1h-4l-19 1-3 1-9-2v2l-9 1h-3l2 5-2 6v10h-10l1-2h5l2-12v-7l3-2 9-2h10z" fill="#DD9C0A"/>
<path transform="translate(635,863)" d="m0 0h6l-3 2h-3v2l-5 2-9 1-4 2-10 1-1 1-15 1-12 1-9-2v-1l7-1 5-1 7 1h5l5-1h12l6-3h3l3-1h6l5-1z" fill="#DD9C0A"/>
<path transform="translate(236,408)" d="m0 0h1l1 9-1 8 2 9 3 8 2 12 4 9 4 10v7h-1l-2-7-4-9-2-6-2-4v-6l-2-3-4-19v-5l-2-3 1-5z" fill="#A88F3A"/>
<path transform="translate(260,212)" d="m0 0 5 1v1l-7 1v6l-7 3-3 5-2 1-1 4-1 1-1 8-2 2h-4l-1 3 1-5 3-5 1-1 1-9 4-5 7-4h3l1-5z" fill="#56462F"/>
<path transform="translate(493,108)" d="m0 0 16 1 2 1-4 3-3-1h-13l-5 1-4 1-1 2h-13l-6-1-1 3h-4v-2h3l1-2 9-1h7l3 1 1-4 7 1z" fill="#837134"/>
<path transform="translate(475,469)" d="m0 0 2 1-4 3-6 1-2 3-7 3h-5l1 5-5 5 1 7 1 10h-2l-3-6 2-3h-2v-8l4-5h2v-6l5-1 2-4 7-2z" fill="#B37056"/>
<path transform="translate(630,390)" d="m0 0 4 1v9l-5 4h-2l-4-6 1-4z" fill="#B37056"/>
<path transform="translate(559,397)" d="m0 0 3 1-1 2-4 1h-7l-1 5-5 5-1 6h2v4l1 6 4 1 1 3-4-2-3-1-2-7v-4h-2l2-10 4-2 3-5 7-1z" fill="#1B1E1D"/>
<path transform="translate(222,507)" d="m0 0h2l2 4v5l-2 1 1 2-3 5-2 4-1-1-1-13z" fill="#B48C50"/>
<path transform="translate(483,506)" d="m0 0h8l3 2h-8v2l-9 3-15-1-1-3-7 1-3-3 12 1 1 2 8-1 4-1 4 2z" fill="#B37056"/>
<path transform="translate(354,538)" d="m0 0 10 3 1-3 3 2-1 4-4 2h-9l-3-2 2-5z" fill="#B8815D"/>
<path transform="translate(386,357)" d="m0 0h9l5 2-1 2-8-1h-5l-3 2-4-1-1 1h-7l-2 4-8 3 2-4 2-3 11-2 2-2 5 1z" fill="#1B1E1D"/>
<path transform="translate(520,867)" d="m0 0 16 1 4 2 11-1 1 1h13l4 3h-3-12l-6-1h-11v-2h-15z" fill="#DD9C0A"/>
<path transform="translate(650,366)" d="m0 0 2 3 1 9 3 2v5l2 3v3l4 1-1 5h2l-1 4-5-5-1-4-1-5-3-2-1-3z" fill="#1B1E1D"/>
<path transform="translate(459,428)" d="m0 0 4 1-4 1v9l1 3-2 4h2l2 7 1 4-5 3-12 6 1-3 6-3 4-3h4l-3-7 1-3h-2l-1-7 1-10z" fill="#B37056"/>
<path transform="translate(673,238)" d="m0 0 5 5-2 6v12l2 2 3 15-2-1-2-5-2-1 1-5-3-5v-16-3z" fill="#A99537"/>
<path transform="translate(498,863)" d="m0 0h13l5 2 4 2h-8l-4-2-10 1-4 4-12 3-10 3 1-3 10-3 1-1 9-1z" fill="#DD9C0A"/>
<path transform="translate(562,785)" d="m0 0 7 1 6 4 3 3 6 2 1-4h7l5 1v1h-9v2l-2 1-10-1-3-1v-4h-6l-1-3z" fill="#DD9C0A"/>
<path transform="translate(366,125)" d="m0 0h20l-1 2-10 1-3 1-1-2-3-1-1 3-6 1-7 1-5 1-1 2-3-2 3-2 7-2h10z" fill="#A79139"/>
<path transform="translate(388,125)" d="m0 0h9l6 2 18 2 1 1h11l-2 2-11 1h-2l-1-2-5-1h-9l-3-2h-9z" fill="#AF8B45"/>
<path transform="translate(422,877)" d="m0 0 6 1h15l7 1h3v3l-10-1-4 1h-10l-6-3z" fill="#DD9C0A"/>
<path transform="translate(288,416)" d="m0 0 3 3 2 10 2 6 1 7-4 3-2-17-3-7z" fill="#A76950"/>
<path transform="translate(236,408)" d="m0 0h1l1 9-1 8 2 9 1 1v5l-2-1-3-13v-5l-2-3 1-5z" fill="#AB8C40"/>
<path transform="translate(276,330)" d="m0 0 3 4 2 6v10l1 4 1 7-1 5-2-4-1-16v-4l-3-2 1-6h-2z" fill="#1B1E1D"/>
<path transform="translate(380,255)" d="m0 0 2 1-3 5h-7l-6 3-8 3-1 2-2-1 2-4 5-2 3-3h13z" fill="#1B1E1D"/>
<path transform="translate(548,669)" d="m0 0h9l-3 3-7 2-9 1-5 1-3-1-1 2-3-1h2l1-3 5-1 3 1h9z" fill="#DD9C0A"/>
<path transform="translate(369,481)" d="m0 0h4l1 7-5 4-1 2h-2l1-10z" fill="#B37056"/>
<path transform="translate(476,243)" d="m0 0h3l-2 5-10 2-4 4-4-2-2-2 5-2 11-1z" fill="#A2664E"/>
<path transform="translate(288,422)" d="m0 0h1l3 11 1 16-1 4-2-2-1-10v-10l-1-2z" fill="#1B1E1D"/>
<path transform="translate(694,308)" d="m0 0 1 3v5l2 1 1 9 2 4-1 6 1 1 1 9-2-1-1-7-1-4 1-2-3-3 1-7h-2l-1-5v-7z" fill="#AA903D"/>
<path transform="translate(356,129)" d="m0 0h2l-1 4h-6v2l-6-1-1 3-3 1h-9v-2l7 1 1-4h8z" fill="#4A4625"/>
<path transform="translate(225,283)" d="m0 0 1 4-2 5 1 6-1 4 1 15-2-3-2-4 1-7-1-5v-4l2-6z" fill="#AB923C"/>
<path transform="translate(598,651)" d="m0 0 2 1-2 3-2-1v3h-8l-5 3-1 3-7-1 4-3h2l3-3 11-3z" fill="#D99C0C"/>
<path transform="translate(411,449)" d="m0 0h1v6l-4 2-1 4-7 3-4 1-3-2 8-3 7-6h3z" fill="#1B1E1D"/>
<path transform="translate(237,248)" d="m0 0 1 3-2 3 1 5-3 1-1 7-4 2v6h-1v-7l3-1v-7l3-8z" fill="#AC8C41"/>
<path transform="translate(664,206)" d="m0 0 2 4 3 8 2 7 3 8-1 5h-1l-2-9-2-1-1-9-3-6z" fill="#A58D38"/>
<path transform="translate(466,425)" d="m0 0 4 1 4 6 3 2v5l-4 1-1 2 1-6v-2l-5-5-4-1z" fill="#B37056"/>
<path transform="translate(619,279)" d="m0 0h7l1 5-2 12-2 2-1-12 3-1v-5l-5 1z" fill="#1B1E1D"/>
<path transform="translate(296,167)" d="m0 0h2l-2 7-3 4h-2l-1 4-2 3v5l-3 2v-8l4-4 2-4h2l1-5z" fill="#A89139"/>
<path transform="translate(493,108)" d="m0 0 16 1 2 1-4 3-3-1h-16l2-3z" fill="#A2873A"/>
<path transform="translate(504,519)" d="m0 0 3 1-6 3h-2v2l-2 1h-8l-5 2-3-1 5-3 8 1 1-4 8-1z" fill="#B37056"/>
<path transform="translate(703,360)" d="m0 0 3 2v8l-1 3v8h-2v8l-2 2v-12l2-2v-8l1-5z" fill="#AA923B"/>
<path transform="translate(528,779)" d="m0 0 8 1-4 2-8 2-4-3-1 2-5 1-4-2 8-2z" fill="#DD9C0A"/>
<path transform="translate(242,369)" d="m0 0 2 1-1 5-2 2-2 1-3 11-2 4-1-3 2-4 1-8z" fill="#A88C3C"/>
<path transform="translate(607,150)" d="m0 0 9 3h2v3l6-1v2l5 2v2l3 1h-5l-4-4-6-1v-2l-7-1-6-2z" fill="#AB8E3F"/>
<path transform="translate(417,672)" d="m0 0h9l1 2h8l4 2-3 1-5 1-9-2v-2l-4-1-1 2z" fill="#DA9D0A"/>
<path transform="translate(622,298)" d="m0 0 3 2 1 13 1 4-1 2 3 1-2 3-3-7-1-9-1-7z" fill="#1B1E1D"/>
<path transform="translate(353,770)" d="m0 0 3 2 8-1 4 4-5 1-1-2-7 1-4 4-1-4 3-1z" fill="#D2A509"/>
<path transform="translate(453,677)" d="m0 0 16 1 5 2v1h-9l-3-1h-14l-2-2z" fill="#DD9C0A"/>
<path transform="translate(699,392)" d="m0 0h3l-1 4 6-1 2 4-4 1-5-1-2-6z" fill="#B28A4D"/>
<path transform="translate(354,373)" d="m0 0h3l-1 5v3l1 5 9 1-1 2-6 1v-3l-4-1-2-5v-4h2z" fill="#1B1E1D"/>
<path transform="translate(430,487)" d="m0 0 2 1v15l3 5v5l-4-2v-2h2l-3-5-1-5z" fill="#B37056"/>
<path transform="translate(438,515)" d="m0 0 9 5 5 3 6 2v1l-8-1h-3l-2-4h-6z" fill="#B37056"/>
<path transform="translate(688,483)" d="m0 0h9l-1 2h-6v12l-2 3v-4l-2-1 1-5-1-6z" fill="#ADA038"/>
<path transform="translate(395,377)" d="m0 0 14 2 2 3-6 1-4-2v-2l-9 1 3-1z" fill="#9A614A"/>
<path transform="translate(571,229)" d="m0 0h10l2 1-1 3v-2h-9l1 5-10 1 1-2 5-1z" fill="#9A614A"/>
<path transform="translate(553,239)" d="m0 0h5l-1 4-3 1h-11v-3h10z" fill="#A0654D"/>
<path transform="translate(548,779)" d="m0 0 6 1 7 1 1 4h-4l-2-3h-12l-2-2z" fill="#DD9C0A"/>
<path transform="translate(545,622)" d="m0 0 5 5 1 8 2 3-5 3v-2l2-2-3-3 1-6-3-3z" fill="#B37056"/>
<path transform="translate(543,328)" d="m0 0 5 1h9l4-1 4 3h-15l-4 1v-2l-4 1z" fill="#1B1E1D"/>
<path transform="translate(224,321)" d="m0 0 2 2-1 3h2l1 3-2 1v10l-2-2-1-8-1-4z" fill="#AD8349"/>
<path transform="translate(284,309)" d="m0 0h3v2l-11 9v5l-2 1-1-6 3-5 5-2z" fill="#1B1E1D"/>
<path transform="translate(443,465)" d="m0 0 3 1-4 2-2 6-4 3-1 7-2-2 1-6 5-4 1-5z" fill="#B37056"/>
<path transform="translate(540,331)" d="m0 0 2 1-9 3-9 4-3-1 3-3z" fill="#1B1E1D"/>
<path transform="translate(241,237)" d="m0 0h2v6l-2 2h-4l-1 3 1-5 3-5z" fill="#6A5832"/>
<path transform="translate(519,501)" d="m0 0 5 3v7l-4 2-1 3h-2l1-6 4-2-1-4-2-1z" fill="#B37056"/>
<path transform="translate(481,240)" d="m0 0v3l-5 1-4 4-3-1 2-4z" fill="#1B1E1D"/>
<path transform="translate(446,120)" d="m0 0h6v1l-8 1v3l-5 4h-5l4-4h2v-2z" fill="#7B6D31"/>
<path transform="translate(462,875)" d="m0 0 10 1v1l-15 3-3-2 5-1 2 1z" fill="#DD9C0A"/>
<path transform="translate(508,676)" d="m0 0h12l6 1-1 2-8-1-6 2z" fill="#DD9C0A"/>
<path transform="translate(299,571)" d="m0 0 1 2 3 1 4 9 2 3-1 4-9-16z" fill="#B09841"/>
<path transform="translate(412,361)" d="m0 0h6v4l3 1-2 3 3 1v4h-2v-3l-4-4v-5z" fill="#A1654D"/>
<path transform="translate(386,871)" d="m0 0 11 1 1 3 2 1-11-1v-2l-3 1z" fill="#D79F0A"/>
<path transform="translate(494,677)" d="m0 0 4 1 4-1 4 1 2-1-1 3-14 1-2-2h3z" fill="#DD9C0A"/>
<path transform="translate(742,462)" d="m0 0h1v5l-5 8-2-8 5-2z" fill="#B19545"/>
<path transform="translate(288,416)" d="m0 0 3 3 1 14h-1l-3-11-1-5z" fill="#99614A"/>
<path transform="translate(260,212)" d="m0 0 5 1v1l-7 1v6l-5 1-2-2 5-1 1-5z" fill="#806D34"/>
<path transform="translate(221,531)" d="m0 0h2l2 9 2 4-3 2-1-5-2-1z" fill="#AF9A3F"/>
<path transform="translate(686,502)" d="m0 0 1 2v15l-2 1-2-5 1-1 1-11z" fill="#AD9E3A"/>
<path transform="translate(226,340)" d="m0 0 4 1 2 9 1 4-2-1v-2h-2l-2-7z" fill="#A99238"/>
<path transform="translate(675,263)" d="m0 0h3l3 15-2-1-2-5-2-1 1-5z" fill="#AF9042"/>
<path transform="translate(511,110)" d="m0 0 13 1 1 3h5v1l-7 1-3-3-9-1z" fill="#A98348"/>
<path transform="translate(243,480)" d="m0 0 2 1-3 2h-3l1 5-8 3 1-4 4-2 1-3z" fill="#B29249"/>
<path transform="translate(622,305)" d="m0 0 2 4 1 11h-3l-1-4v-4z" fill="#A4674F"/>
<path transform="translate(283,196)" d="m0 0 1 2-1 5-4 1h-2l-1 4h-4l3-2 3-5 3-1z" fill="#A88940"/>
<path transform="translate(745,451)" d="m0 0 1 2-4 12h-1l-1-8z" fill="#B58A53"/>
<path transform="translate(588,149)" d="m0 0 16 1-3 2h-9l-4 1z" fill="#A78F3A"/>
<path transform="translate(505,632)" d="m0 0 2 4-2 5h2v5l-3-2-1-8v-3z" fill="#B37056"/>
<path transform="translate(575,144)" d="m0 0h2l3 5 5 1-2 3-4-1-3-2z" fill="#AA8F3D"/>
<path transform="translate(252,475)" d="m0 0 4 3v3l-6 2-5-1 4-1 3-1z" fill="#B58256"/>
<path transform="translate(414,362)" d="m0 0h2l2 7 3 3-1 3h-2v-3h-2l-2-9z" fill="#1B1E1D"/>
<path transform="translate(476,243)" d="m0 0h3l-2 5-2 1h-8l2-2 5-1z" fill="#9C624B"/>
<path transform="translate(466,113)" d="m0 0 7 1-1 2-10-1-1 3h-4v-2h3l1-2z" fill="#AD8745"/>
<path transform="translate(562,443)" d="m0 0h4v3l-8 2v-4z" fill="#B37056"/>
<path transform="translate(417,129)" d="m0 0 5 1h11l-2 2-11 1h-2z" fill="#AB8D3E"/>
<path transform="translate(474,679)" d="m0 0h9l8 1v1l-12 1-5-2z" fill="#DD9C0A"/>
<path transform="translate(584,656)" d="m0 0h2l-1 3-2 1-1 3-7-1 4-3h2z" fill="#DD9C0A"/>
<path transform="translate(353,381)" d="m0 0 3 3v2l3 1v3h2v2l-4-1 1-3-5-1z" fill="#9E634C"/>
<path transform="translate(287,309)" d="m0 0h3l-1 2h-2zm-2 2h2l-1 3-8 6-2-1z" fill="#9A614A"/>
<path transform="translate(375,125)" d="m0 0h11l-1 2-10 1-3 1-1-3z" fill="#AC7F4B"/>
<path transform="translate(331,138)" d="m0 0 1 3-4 3-7 1 5-5h5z" fill="#A68E3A"/>
</svg>
