<?xml version="1.0" encoding="UTF-8"?>
<svg version="1.1" viewBox="0 0 1280 1280" width="1280" height="1280" xmlns="http://www.w3.org/2000/svg">
<path transform="translate(614,132)" d="m0 0h12l3 4 2 11 2 4 2 1h17l13-1h18l22 2 7 4-1 8-2 12 2 3 9 3 6 1 26 1 15 8 1 5-3 3-3 6-5 5v3l19 13 7 8 9 10 5 7v2l4 2 7 11 5 12 4 8 5 15 2 3 2 18 2 6v9l-2 9v12l1 5-2 12v10l2 23 1 49 3 60v39l-3 40-3 11-2 13-4 12-2 3-2 7-10 19-10 15-11 14-7 6-5 5-6 4-6 5-8 7-10 5-12 8-10 5-5 4-2 3v3l13 9 6 4 6 7 3 2v2l5 2 10 9 8 6 8 10 9 9 7 6 5 5 5 6 4 3 9 1 3 1 9-6 13-12 8-5 8-7 4-5 10-15 6-7 8-7 6-5 8-4 16-4 11-1h59l35 1 12 6 4 6-1 7-8 9-8 4-13 4-15 4-8 3-4 9v8l3 19v26l-1 12-5 13-7 10-8 7-10 4-8 1-19 1-7 2-4 5-5 11-11 11-4 6-7 6-5 5-13 10-11 7-14 7-16 5-14 2h-28l-18-2-3-2-13-2-3-2h-7l-3 2-1 9v12l-1 5-1 22v24l1 4v9l-1 3-1 65-1 11-5 5h-66l-253 1h-40l-11-2-4-6-1-5v-18l3-36 2-124 1-11 2-48 3-29 1-20 3-12 1-12 3-8 2-9 2-7 2-9 2-3 2-9 5-10 7-12 7-10 8-10 7-6 4-6 10-10-1-7-12-13-10-9-6-5-7-8-7-11-5-5-6-12-2-2-3-9-4-9-5-12-4-14-5-9-6-2-18-2-11-4-10-9-6-7-3-13v-16l3-17 4-15 4-8 6-8 4-2 4-4 1-3v-15l-1-31v-26l1-23 4-24 3-9 2-7 4-10 5-10 4-9 6-12 3-4 3-6 12-18 6-8 11-12 8-9 5-5 8-6 15-15 11-7 5-2 2-4 9-7 8-4 7-5 10-5 21-14 17-8 7-3 10-5 7-2 5-2 7-2 4-2 10-2 3-2 14-2 13-4 5-2 9-1z" fill="#FBBB98"/>
<path transform="translate(431,712)" d="m0 0 11 6 5 4 24 12 12 5 20 7 17 3 4 3 18 2 13 3 20 2h46l16-2 3-1 15-1 15-4 22-6 8-2 16 8 7 3 9 6 6 7 3 2v2l5 2 10 9 8 6 8 10 9 9 7 6 5 5 5 6 4 3 9 1 3 1 9-6 13-12 8-5 8-7 4-5 10-15 6-7 8-7 6-5 8-4 16-4 11-1h59l35 1 12 6 4 6-1 7-8 9-8 4-13 4-15 4-8 3-4 9v8l3 19v26l-1 12-5 13-7 10-8 7-10 4-8 1-19 1-7 2-4 5-5 11-11 11-4 6-7 6-5 5-13 10-11 7-14 7-16 5-14 2h-28l-18-2-3-2-13-2-3-2h-7l-3 2-1 9v12l-1 5-1 22v24l1 4v9l-1 3-1 65-1 11-5 5h-66l-253 1h-40l-11-2-4-6-1-5v-18l3-36 2-124 1-11 2-48 3-29 1-20 3-12 1-12 3-8 2-9 2-7 2-9 2-3 2-9 5-10 7-12 7-10 8-10 7-6 4-6 8-8z" fill="#7AA6D8"/>
<path transform="translate(614,132)" d="m0 0h12l3 4 2 11 2 4 2 1h17l13-1h18l22 2 7 4-1 8-2 12 2 3 9 3 6 1 26 1 15 8 1 5-3 3-3 6-5 5v3l19 13 7 8 9 10 5 7v2l4 2 7 11 5 12 4 8 5 15 2 3 1 20 1 3v11l-1 7v18l-2 4-5-12-9-26-5-8v-2l-5-2-1-4-10-6-6-5v-2l-4-2-6-5-4-1-7 2v2l-10 7-6 2v3l-12 4-3 3-14 3-6 4h-7l-6-12-4-9-2-5v-3l-8 1-11 12-11 6-10 6-10 5-8 2h-10l-3-1-5-8-5-13-3-4v-2h-5l-8 7-12 7-15 7-24 12-13 5-5-5-8-17v-2h-9l-16 8-13 8-6 3-3 5-6 4h-2v2h-2l-2 4-9 10-14 24-2 1-5 13-7 10-2 4-1 5-5 13-4 12-8 32-7 17-3 3-9-2-6-5-13-4-11-1h-18l-11 1-2-20-1-22-1-5v-26l1-23 4-24 3-9 2-7 4-10 5-10 4-9 6-12 3-4 3-6 12-18 6-8 11-12 8-9 5-5 8-6 15-15 11-7 5-2 2-4 9-7 8-4 7-5 10-5 21-14 17-8 7-3 10-5 7-2 5-2 7-2 4-2 10-2 3-2 14-2 13-4 5-2 9-1z" fill="#0D0C0C"/>
<path transform="translate(623,132)" d="m0 0 4 1 2 3 2 11 2 4 2 1h17l13-1h18l22 2 7 4-1 8-2 12 2 3 9 3 6 1 26 1 15 8 1 5-3 3-3 6-5 5v3l19 13 7 8 9 10 5 7v2l4 2 7 11 5 12 4 8 5 15 2 3 1 20 1 3v11l-1 7v18l-2 4-5-12-9-26-5-8v-2l-5-2-1-4-10-6-6-5v-2l-4-2-6-5-4-1-7 2v2l-10 7-6 2v3l-12 4-3 3-14 3-6 4h-7l-6-12-4-9-2-5v-3l-8 1-11 12-11 6-10 6-10 5-8 2h-10v-1l9-3v-13l2-6 1-21 2-7v-17l2-34 4-34 3-31 1-4-15 1-3 1-3-1v-19z" fill="#1A1D1C"/>
<path transform="translate(719,781)" d="m0 0 9 1 3 2 12 2 6 3 3 4v17l-12 7-18 6-7 1-7 4-12 3 1 7 2 3-1 22 8 6v12l-2 5 1 6 5 6 1 5v8l-4 11-4 6-9 8-21 11-5 1h-10l-27-3-10-5-5-3-6-2-5-5-6-5-6-9-1-5-6-2-6-11-4-9-2-5-3-26 1-5 1-4v-10l4-10 6-10 4-7 6-3 7-6h2l1-3 6-3 9-3 4-4 10-2 28-2 9-1h12l17-3h18z" fill="#FCBC98"/>
<path transform="translate(921,751)" d="m0 0h59l35 1 12 6 4 6-1 7-8 9-8 4-13 4-15 4-8 3-4 9v8l3 19v26l-1 12-5 13-7 10-8 7-10 4-8 1-19 1-7 1v-2h-10l-20-8-9-7-5-4-7-11-5-14-1-24-2-15 3-16 1-13 7-10 4-6 7-6 5-5 6-5 8-4 16-4z" fill="#FCBC98"/>
<path transform="translate(614,132)" d="m0 0h9l4 6v14l-1 5 6-1h15l-2 24-4 39-1 6-2 34v19l-2 5-1 21-2 6-1 13-4 3h-8l-5-8-5-13-3-4v-2h-5l-8 7-12 7-15 7-12 6-8 1-7 1 1-14-2-3v-21l2-16 2-37v-17l1-7 1-47 1-13 17-6 20-4 8-5 11-2 3-2z" fill="#0D0C0C"/>
<path transform="translate(594,136)" d="m0 0h8v1l-11 2-4 3-6 3-16 2-16 6h-3l-1 60-1 7v17l-2 37-2 16v21l2 4-2 13 13-3-5 5-17 7-5-3-9-19v-2h-9l-16 8-13 8-6 3-3 5-6 4h-2v2h-2l-2 4-9 10-6 11-2-2 2-12 4-29 1-5 1-26 3-27 1-19v-22l1-1 1-10v-15l-9 4-8 5-2 5-7 4-2-1v-2l6-4h2l2-4 9-7 8-4 7-5 10-5 21-14 17-8 7-3 10-5 7-2 5-2 7-2 4-2 10-2 3-2 14-2 13-4z" fill="#1A1D1D"/>
<path transform="translate(722,187)" d="m0 0 28 1 14 7-1 4-8 8-4 6 6 2 19 13 7 8 9 10 5 7v2l4 2 7 11 5 12 4 8 5 15 2 3 1 20 1 3v11l-1 7v18l-2 4-5-12-9-26-5-8v-2l-5-2-1-4-10-6-6-5v-2l-4-2-6-5-4-1-7 2v2l-10 7-6 2v3l-12 4-3 3-6 1h-9v-23l-1-7 2-2-1-21 1-1 1-22 2-50z" fill="#0D0C0C"/>
<path transform="translate(425,216)" d="m0 0 2 1-15 14-4 6-8 6h-2v2l-5 5-7 8-8 7-3 7-2 29-1 52-1 14-2 10v18l1 8-2 9v57l-2 11-14-1h-18l-11 1-2-20-1-22-1-5v-26l1-23 4-24 3-9 2-7 4-10 5-10 4-9 6-12 3-4 3-6 12-18 6-8 11-12 8-9 5-5 8-6 15-15z" fill="#1B1F1F"/>
<path transform="translate(430,752)" d="m0 0h10l10 8 10 9 8 7 14 12 8 7 9 8h8l9-5 14-4 4-3 21-9 8-5 4-3 9-4 7-3h6l16 8 10 6 7 5-1 6-5 4-10 3-9 8-7 5h-3l-2 6-6 9-4 8-3 3-8 1-5 4-8 4-7 3-8 3-3 2-6 1-2 3-7 3-5 4-9 3-7-1-4-6 2-8 2-4 7-1 1-9-4-7-8-5-3-7-17-12-8-8-8-6-4-5-6-4-3-3-6-3-3-5v-2l-4-2-5-6-2-6 2-6z" fill="#4A80A8"/>
<path transform="translate(622,645)" d="m0 0 52 1 16 2 3 4v9l-4 8-4 9-8 11-6 8-10 12-10 6-2 2-21 1-11-6-9-5-6-8-4-2-10-18-10-21v-7l8-3z" fill="#B72344"/>
<path transform="translate(380,907)" d="m0 0h10l6 6v2l5 2 8 7 13 13 7 8 7 7 11 7 7 6 8 4 22 5 6 1 21-1 12-3 33-9 11-5 4-2 9-2 2-2h5l1-4 18-10 1-1h9l10 6 4 1-1 5-16 9-14 9h-7v3l-14 8-28 9-17 6-21 3h-36l-13-3-19-10-16-10-11-9-4-4v-3l-5-2-1-4-6-2-6-5-6-9-2-4-5-2-4-4-3-5v-6z" fill="#4A80A8"/>
<path transform="translate(580,789)" d="m0 0h10l13 9-1 5-12 9-11 2-11 5-9 4-11 4-2 2-11 3-2 2h-5l-9-9 2-7 19-7 23-13 12-5z" fill="#7AA6D8"/>
<path transform="translate(558,386)" d="m0 0h23l11 4 5 7v7l-6 6h-14l-7-1-7 2-10 2-7 4h-6l-8-5-2-5v-6l7-8 6-2 4-3z" fill="#0F0C0C"/>
<path transform="translate(730,385)" d="m0 0 8 1 20 3 8 3 6 3 4 7 1 9-11 7-7-1-5-4-7-2-31-1-3-2v-2h-2l-1-4v-7l6-7 9-1z" fill="#0F0C0D"/>
<path transform="translate(727,482)" d="m0 0h10l9 3v2l4 2 5 10v7l-2 6-3 5-10 6-7 1-10-4-8-7-2-11 2-9 4-6z" fill="#0F0C0D"/>
<path transform="translate(565,485)" d="m0 0h17l9 6 4 4v19l-5 6-7 4h-11l-12-6-3-4-1-7v-7l3-9h2l2-4z" fill="#0E0C0C"/>
<path transform="translate(781,235)" d="m0 0 7 6 9 12v2l4 2 7 11 5 12 4 8 5 15 2 3 1 20 1 3v11l-1 7v18l-2 4-5-12-9-26-5-8v-2l-2-1h5l3-12v-25l-4-10-5-9-9-12-3-6-7-6z" fill="#1B1D1D"/>
<path transform="translate(690,757)" d="m0 0h8l5 4v10l-8 11-2 2-12 2h-12l-3-3 3-5 4-2 4-6 11-12z" fill="#4B80A9"/>
<path transform="translate(691,564)" d="m0 0 5 1 7 14-1 3-7 1h-10l-2-1 1-8 4-7z" fill="#B72344"/>
<path transform="translate(425,216)" d="m0 0 2 1-15 14-4 6-8 6h-2v2l-5 5-7 8-8 7-5 5-5 4 2-5 14-15 7-8 5-5 8-6 15-15z" fill="#1A1D1C"/>
<path transform="translate(781,235)" d="m0 0 7 6 9 12v2l4 2 7 11 5 12 4 8 5 15 2 3v6l-2-4-6-14-3-9-4-4-5-12-4-6-8-11-3-6-7-6z" fill="#5B707F"/>
<path transform="translate(558,386)" d="m0 0h23l6 2v1l-16 1h-8l-11 3-6-1-1-3z" fill="#1F1D1D"/>
<path transform="translate(594,136)" d="m0 0h8v1l-11 2-4 3-6 3-16 2-16 6-6-1 3-3 13-3 3-2 14-2 13-4z" fill="#2A3E4A"/>
<path transform="translate(628,136)" d="m0 0h1l2 11 2 4 2 1h17l13-1h18l14 1v1l-41 1h-27l-1-8z" fill="#B4C4D2"/>
<path transform="translate(755,188)" d="m0 0 5 1 8 5-1 5-5 8-5 5-1 2-5-1 2-4 7-8 3-3-1-5-7-4z" fill="#364F60"/>
<path transform="translate(706,170)" d="m0 0h3v7l2 3 9 3 6 1 26 1v1h-27l-14-3-6-5z" fill="#7CA0BC"/>
<path transform="translate(717,737)" d="m0 0 2 1-5 5-1 4 5 5-6-2-8-5 1-3z" fill="#fff"/>
<path transform="translate(449,199)" d="m0 0 2 1-8 6-5 3-2 5-7 4-2-1v-2l6-4h2l2-4 9-7z" fill="#2E3E48"/>
<path transform="translate(396,241)" d="m0 0 2 1-15 16-12 13-3 3 2-5 14-15 7-8z" fill="#5283A8"/>
<path transform="translate(425,216)" d="m0 0 2 1-15 14-9 8-2-1 18-18z" fill="#46799E"/>
<path transform="translate(594,136)" d="m0 0h8v1l-11 2-4 3-6 3h-7l-3-2 18-5z" fill="#3A576B"/>
<path transform="translate(756,215)" d="m0 0 9 5 11 8 4 4-1 2-8-7-7-4-8-6z" fill="#5F88A9"/>
<path transform="translate(614,132)" d="m0 0h6l-3 1-1 3-3 1h-9l-1-2z" fill="#2C4352"/>
<path transform="translate(807,268)" d="m0 0 2 3 3 6v7l-3-3-3-8z" fill="#3A444A"/>
<path transform="translate(781,235)" d="m0 0 7 6 8 10-1 2-6-7-7-6z" fill="#3C6380"/>
<path transform="translate(549,148)" d="m0 0h8v2l-8 3-6-1 3-3z" fill="#384B57"/>
<path transform="translate(760,205)" d="m0 0h2v2l-5 5-1 2-5-1 2-4z" fill="#FEF9F7"/>
<path transform="translate(803,828)" d="m0 0h8l5 1-2 3h-7l-4-2z" fill="#fff"/>
<path transform="translate(752,213)" d="m0 0 4 1 3 5 9 6-2 1-10-7-4-3z" fill="#1D2324"/>
<path transform="translate(449,199)" d="m0 0 2 1-8 6-8 5 2-4 9-7z" fill="#6589A5"/>
<path transform="translate(706,170)" d="m0 0h3v7l2 4-5-2-1-2z" fill="#FAF7F7"/>
<path transform="translate(407,234)" d="m0 0h2l-1 3-8 6-2-1 1-3 5-2z" fill="#212C31"/>
<path transform="translate(602,136)" d="m0 0h2v2l-7 1-4 2-4-1 2-2z" fill="#1A1D1C"/>
</svg>
